<svg width="1290" height="828" viewBox="0 0 1290 828" fill="none" xmlns="http://www.w3.org/2000/svg">
<path d="M213.254 382.539L213.254 388.179L183.674 388.179L183.674 396.879L179.954 396.879C179.954 391.659 178.634 389.199 176.414 387.819C175.034 386.919 173.294 386.619 172.814 386.559L172.814 382.539L213.254 382.539ZM199.874 366.579L199.874 361.179C204.914 360.819 208.814 359.439 208.814 351.699C208.814 350.079 208.754 342.879 201.554 342.879C197.474 342.879 194.774 345.399 194.774 351.759C194.774 353.319 194.834 354.519 194.954 355.719L190.094 355.719C190.154 354.879 190.214 353.799 190.214 352.659C190.214 348.219 188.834 343.839 183.734 343.839C178.934 343.839 176.894 348.399 176.894 351.999C176.894 354.639 177.854 356.979 180.254 358.479C182.114 359.619 184.274 359.739 186.374 359.859L186.134 365.199C184.034 365.079 182.714 365.019 180.794 364.419C172.874 361.959 172.454 354.399 172.454 351.939C172.454 343.419 177.314 338.439 183.734 338.439C187.574 338.439 190.394 339.819 192.314 343.359C193.514 340.359 196.634 337.239 201.974 337.239C203.474 337.239 206.774 337.479 209.714 340.359C213.554 344.139 213.614 349.479 213.614 351.279C213.614 359.079 210.014 366.579 199.874 366.579ZM202.574 293.229L203.054 288.069C211.274 289.629 214.154 294.909 214.154 301.389C214.154 310.269 207.974 315.369 199.334 315.369C190.874 315.369 184.094 310.749 184.094 301.629C184.094 293.109 189.494 289.329 193.574 288.609L194.054 293.889C189.914 294.609 187.574 297.369 187.574 301.569C187.574 305.889 190.454 310.089 199.034 310.089C205.754 310.089 210.434 307.089 210.434 301.269C210.434 295.869 207.014 293.769 202.574 293.229ZM184.994 258.1L184.994 251.98L213.254 251.98L213.254 256.18L190.034 256.18L213.254 264.7L213.254 269.62L189.554 277.78L213.254 277.78L213.254 282.46L184.994 282.46L184.994 275.38L208.454 266.74L184.994 258.1Z" fill="#737373"/>
<path d="M240.961 0.292893C240.57 -0.0976311 239.937 -0.0976311 239.547 0.292893L233.183 6.65685C232.792 7.04738 232.792 7.68054 233.183 8.07107C233.573 8.46159 234.207 8.46159 234.597 8.07107L240.254 2.41421L245.911 8.07107C246.301 8.46159 246.934 8.46159 247.325 8.07107C247.715 7.68054 247.715 7.04738 247.325 6.65685L240.961 0.292893ZM239.547 651.707C239.937 652.098 240.57 652.098 240.961 651.707L247.325 645.343C247.715 644.953 247.715 644.319 247.325 643.929C246.934 643.538 246.301 643.538 245.911 643.929L240.254 649.586L234.597 643.929C234.207 643.538 233.573 643.538 233.183 643.929C232.792 644.319 232.792 644.953 233.183 645.343L239.547 651.707ZM239.254 1V326H241.254V1H239.254ZM239.254 326V651H241.254V326H239.254Z" fill="#737373"/>
<path d="M481.032 211.113C481.032 209.589 480.94 208.139 480.738 206.762C480.646 206.082 480.518 205.403 480.371 204.761C480.298 204.43 480.224 204.118 480.132 203.806C480.096 203.659 480.059 203.494 480.004 203.347C479.986 203.255 479.949 203.182 479.931 203.108C479.912 203.035 479.894 202.98 479.857 202.888C479.527 201.897 479.123 200.942 478.645 200.043C478.15 199.143 477.599 198.28 476.975 197.491C476.351 196.701 475.671 195.967 474.919 195.288C474.551 194.939 474.166 194.627 473.762 194.315C473.56 194.168 473.34 194.021 473.138 193.874C473.046 193.801 472.936 193.727 472.826 193.654C472.771 193.617 472.716 193.58 472.661 193.544C472.605 193.507 472.55 193.47 472.495 193.433C471.192 192.607 469.778 191.91 468.236 191.322C468.163 191.304 468.034 191.249 468.034 191.249C467.337 190.973 466.602 190.753 465.85 190.533C465.427 190.404 465.005 190.294 464.583 190.202C464.381 190.147 464.161 190.111 463.94 190.056C463.83 190.019 463.72 190 463.61 189.982C463.555 189.964 463.5 189.945 463.445 189.945C463.39 189.927 463.334 189.909 463.279 189.909C462.508 189.762 461.719 189.633 460.893 189.523C460.471 189.468 460.048 189.413 459.626 189.376C459.424 189.358 459.204 189.34 458.984 189.321C458.873 189.303 458.763 189.303 458.653 189.303C458.598 189.303 458.543 189.303 458.488 189.303C458.433 189.303 458.378 189.303 458.323 189.303C457.552 189.248 456.762 189.211 455.918 189.174C455.073 189.138 451.493 189.138 450.649 189.174C450.227 189.193 449.823 189.211 449.419 189.229C449.217 189.248 449.033 189.266 448.831 189.266C448.739 189.284 448.629 189.284 448.538 189.284C448.482 189.284 448.446 189.284 448.391 189.284C448.336 189.284 448.299 189.284 448.244 189.284C447.363 189.358 446.5 189.431 445.674 189.541C445.27 189.578 444.866 189.652 444.462 189.707C444.26 189.725 444.076 189.762 443.874 189.799C443.783 189.817 443.673 189.854 443.581 189.854C443.526 189.872 443.489 189.872 443.434 189.872C443.379 189.872 443.342 189.89 443.287 189.89C441.525 190.221 439.872 190.68 438.33 191.267C437.559 191.543 436.825 191.873 436.109 192.222C435.76 192.405 435.411 192.589 435.062 192.773C434.879 192.864 434.714 192.975 434.548 193.066C434.457 193.121 434.365 193.176 434.291 193.213C434.218 193.25 434.144 193.305 434.053 193.36C433.208 193.874 432.437 194.462 431.721 195.086C431.354 195.398 431.005 195.728 430.675 196.077C430.344 196.408 430.032 196.756 429.72 197.142C429.096 197.895 428.545 198.702 428.068 199.547C427.811 199.969 427.591 200.41 427.389 200.85C427.297 201.071 427.187 201.309 427.095 201.53C427.04 201.64 427.003 201.768 426.948 201.878C426.911 201.989 426.856 202.117 426.819 202.227C426.342 203.512 425.993 204.908 425.755 206.376C425.516 207.845 425.406 209.424 425.406 211.076M481.032 211.113V373.677C481.032 375.329 480.922 376.908 480.683 378.377C480.445 379.845 480.096 381.241 479.618 382.526C479.582 382.636 479.527 382.764 479.49 382.875C479.453 382.985 479.398 383.095 479.343 383.223C479.251 383.444 479.159 383.682 479.049 383.903C478.847 384.343 478.627 384.784 478.388 385.206C477.911 386.051 477.36 386.858 476.736 387.611C476.424 387.997 476.112 388.345 475.782 388.676C475.451 389.006 475.102 389.355 474.753 389.667C474.037 390.291 473.266 390.879 472.44 391.393C472.348 391.448 472.275 391.503 472.202 391.54C472.11 391.595 472.036 391.632 471.945 391.687C471.779 391.778 471.614 391.889 471.449 391.98C471.118 392.164 470.77 392.347 470.402 392.531C469.686 392.88 468.952 393.21 468.199 393.486C466.676 394.073 465.023 394.532 463.261 394.863C463.206 394.863 463.169 394.863 463.114 394.881H462.967C462.875 394.918 462.784 394.936 462.674 394.954C462.472 394.991 462.288 395.028 462.086 395.046C461.682 395.101 461.278 395.175 460.874 395.23C460.048 395.34 459.185 395.413 458.304 395.487C458.249 395.487 458.212 395.487 458.157 395.487C458.102 395.487 458.066 395.487 458.011 395.487C457.919 395.487 457.827 395.487 457.717 395.505C457.515 395.505 457.331 395.524 457.129 395.542C456.725 395.56 456.322 395.579 455.899 395.597C455.055 395.615 454.192 395.634 453.274 395.634C452.356 395.634 451.475 395.634 450.649 395.597C449.804 395.579 449.015 395.524 448.244 395.468C448.189 395.468 448.134 395.468 448.079 395.468H447.913C447.803 395.45 447.693 395.432 447.583 395.432C447.363 395.413 447.142 395.395 446.94 395.377C446.518 395.34 446.096 395.285 445.674 395.23C444.847 395.12 444.04 394.991 443.287 394.844C443.232 394.844 443.177 394.826 443.122 394.808C443.067 394.808 443.012 394.789 442.957 394.771C442.846 394.752 442.736 394.716 442.626 394.697C442.406 394.642 442.186 394.606 441.984 394.551C441.561 394.459 441.139 394.349 440.717 394.22C439.891 393.981 439.083 393.724 438.312 393.431C436.77 392.843 435.338 392.146 434.034 391.319C433.979 391.283 433.924 391.246 433.869 391.209C433.814 391.173 433.759 391.136 433.704 391.099C433.594 391.026 433.484 390.952 433.392 390.879C433.19 390.732 432.97 390.585 432.768 390.438C432.364 390.126 431.978 389.814 431.593 389.465C430.84 388.786 430.142 388.052 429.518 387.262C428.894 386.473 428.325 385.61 427.848 384.71C427.37 383.811 426.948 382.856 426.618 381.865C426.599 381.773 426.562 381.718 426.544 381.645L426.471 381.406C426.416 381.259 426.379 381.094 426.324 380.947C426.232 380.635 426.159 380.323 426.085 379.992C425.938 379.35 425.81 378.67 425.7 377.991C425.498 376.614 425.406 375.164 425.406 373.64V211.076M481.032 211.113V243.056C481.032 244.709 480.922 246.288 480.683 247.756C480.445 249.225 480.096 250.62 479.618 251.905C479.582 252.015 479.527 252.144 479.49 252.254C479.453 252.364 479.398 252.474 479.343 252.603C479.251 252.823 479.159 253.062 479.049 253.282C478.847 253.723 478.627 254.163 478.388 254.586C477.911 255.43 477.36 256.238 476.736 256.991C476.424 257.376 476.112 257.725 475.782 258.055C475.451 258.386 475.102 258.735 474.753 259.047C474.037 259.671 473.266 260.258 472.44 260.772C472.348 260.827 472.275 260.882 472.202 260.919C472.11 260.974 472.036 261.011 471.945 261.066C471.779 261.158 471.614 261.268 471.449 261.36C471.118 261.543 470.77 261.727 470.402 261.911C469.686 262.259 468.952 262.59 468.199 262.865C466.676 263.453 465.023 263.912 463.261 264.242C463.206 264.242 463.169 264.242 463.114 264.26H462.967C462.875 264.297 462.784 264.316 462.674 264.334C462.472 264.371 462.288 264.407 462.086 264.426C461.682 264.481 461.278 264.554 460.874 264.609C460.048 264.719 459.185 264.793 458.304 264.866C458.249 264.866 458.212 264.866 458.157 264.866C458.102 264.866 458.066 264.866 458.011 264.866C457.919 264.866 457.827 264.866 457.717 264.885C457.515 264.885 457.331 264.903 457.129 264.921C456.725 264.94 456.322 264.958 455.899 264.976C455.055 264.995 454.192 265.013 453.274 265.013C452.356 265.013 451.475 265.013 450.649 264.976C449.804 264.958 449.015 264.903 448.244 264.848C448.189 264.848 448.134 264.848 448.079 264.848H447.913C447.803 264.83 447.693 264.811 447.583 264.811C447.363 264.793 447.142 264.775 446.94 264.756C446.518 264.719 446.096 264.664 445.674 264.609C444.847 264.499 444.04 264.371 443.287 264.224C443.232 264.224 443.177 264.205 443.122 264.187C443.067 264.187 443.012 264.169 442.957 264.15C442.846 264.132 442.736 264.095 442.626 264.077C442.406 264.022 442.186 263.985 441.984 263.93C441.561 263.838 441.139 263.728 440.717 263.6C439.891 263.361 439.083 263.104 438.312 262.81C436.77 262.223 435.338 261.525 434.034 260.699C433.979 260.662 433.924 260.625 433.869 260.589C433.814 260.552 433.759 260.515 433.704 260.479C433.594 260.405 433.484 260.332 433.392 260.258C433.19 260.111 432.97 259.965 432.768 259.818C432.364 259.506 431.978 259.194 431.593 258.845C430.84 258.165 430.142 257.431 429.518 256.642C428.894 255.852 428.325 254.989 427.848 254.09C427.37 253.19 426.948 252.236 426.618 251.244C426.599 251.153 426.562 251.097 426.544 251.024L426.471 250.785C426.416 250.638 426.379 250.473 426.324 250.326C426.232 250.014 426.159 249.702 426.085 249.372C425.938 248.729 425.81 248.05 425.7 247.371C425.498 245.994 425.406 244.543 425.406 243.02V211.076M443.874 348.067H462.582M443.874 354.896H462.582M443.874 361.726H462.582M453.439 1C411.564 1 346.262 1 346.262 72.1391C343.802 125.452 343.399 157.194 343.399 157.194H333.779C333.779 157.194 330.254 178.655 330.254 227.801V599.284M330.254 599.284C330.254 629.814 345.748 651 379.179 651H453.421M330.254 599.284H427.021M343.619 145.683H453.439M345.73 553.627C345.565 581.55 345.455 599.284 345.455 599.284M345.785 542.373C346.409 436.316 347.694 218.346 347.694 209.883C347.694 198.702 343.637 157.212 343.637 157.212H453.439M345.51 587.388H416.208C416.208 587.388 421.11 589.83 425.406 597.155C429.702 604.48 430.528 607.527 431.538 610.391C432.547 613.255 434.402 615.072 438.092 615.072C441.782 615.072 453.476 615.072 453.476 615.072H468.603C472.293 615.072 474.148 613.255 475.157 610.391C476.167 607.527 476.993 604.48 481.289 597.155C485.585 589.83 490.487 587.388 490.487 587.388H561.185M345.436 599.284V613.016C345.436 621.718 352.486 639.875 375.654 639.875H453.421M453.237 542.208H347.18C343.968 542.208 341.342 544.796 341.342 548.009C341.342 551.203 343.949 553.81 347.18 553.81H453.219M453.274 1C495.15 1 560.451 1 560.451 72.1207C562.911 125.434 563.315 157.176 563.315 157.176H572.935C572.935 157.176 576.459 178.637 576.459 227.782C576.459 276.928 576.459 568.736 576.459 599.266C576.459 629.796 560.965 650.982 527.534 650.982C494.103 650.982 453.292 650.982 453.292 650.982M563.076 145.683H453.274M561.24 599.284C561.24 599.284 561.13 581.55 560.965 553.627M453.274 157.212H563.076C563.076 157.212 559.019 198.702 559.019 209.883C559.019 218.346 560.286 436.316 560.928 542.373M576.441 599.284H479.673M561.259 599.284C561.259 608.445 561.259 604.314 561.259 613.016C561.259 621.718 554.209 639.875 531.04 639.875C507.872 639.875 453.274 639.875 453.274 639.875M453.476 542.208H559.514C562.727 542.208 565.352 544.796 565.352 548.009C565.352 551.203 562.746 553.81 559.514 553.81H453.476M560.139 63.9512C556.816 63.9879 555.072 64.2817 554.007 67.6045C552.942 70.9274 549.27 80.841 549.895 96.0969C550.519 111.353 556.449 125.103 557.679 127.839C558.909 130.574 562.709 131.033 562.709 131.033M347.125 58.6823C359.095 78.2341 360.876 111.041 343.876 135.457M453.035 113.042C455.257 113.042 457.496 112.968 459.699 112.748C461.903 112.528 464.124 112.197 466.253 111.665C467.428 111.371 468.585 111.004 469.705 110.563C470.825 110.123 471.926 109.59 472.918 108.966C474.331 108.085 475.616 106.983 476.681 105.735C477.213 105.093 477.709 104.413 478.131 103.679C478.554 102.963 478.902 102.174 479.196 101.384C479.637 100.172 479.931 98.869 480.132 97.5839C480.316 96.2988 480.408 94.977 480.408 93.6552C480.408 93.6552 480.408 87.5051 480.408 86.8809C480.408 84.5861 480.169 82.2546 479.508 80.0699C479.159 78.9317 478.719 77.8302 478.113 76.8205C477.47 75.7373 476.681 74.7276 475.782 73.8464C475.231 73.2957 474.643 72.7816 474.056 72.341C473.45 71.8821 472.826 71.4782 472.183 71.111C470.054 69.9361 467.685 69.1834 465.28 68.6693C463.353 68.2471 461.37 67.9901 459.387 67.8248C457.368 67.6596 455.33 67.5862 453.311 67.5862H453.127C451.089 67.5862 449.07 67.6596 447.05 67.8248C445.068 67.9901 443.085 68.2654 441.157 68.6693C438.771 69.1834 436.403 69.9361 434.255 71.111C433.612 71.4782 432.988 71.8821 432.382 72.341C431.776 72.8 431.207 73.2957 430.638 73.8464C429.738 74.7276 428.949 75.719 428.306 76.8205C427.719 77.8302 427.26 78.9501 426.911 80.0699C426.25 82.2729 426.012 84.6045 426.012 86.8993C426.012 87.5051 426.012 93.6552 426.012 93.6552C426.012 94.9587 426.103 96.2805 426.287 97.5839C426.471 98.869 426.783 100.172 427.223 101.384C427.517 102.174 427.866 102.945 428.288 103.679C428.71 104.395 429.206 105.093 429.738 105.735C430.803 107.002 432.107 108.085 433.502 108.966C434.512 109.59 435.613 110.123 436.733 110.563C437.853 111.004 439.009 111.371 440.184 111.665C442.314 112.197 444.535 112.528 446.738 112.748C448.941 112.95 450.447 113.042 452.668 113.042H453.035ZM468.034 407.548C468.034 407.548 468.163 407.603 468.236 407.622C469.778 408.209 471.192 408.907 472.495 409.733C472.55 409.77 472.605 409.806 472.661 409.843C472.716 409.88 472.771 409.917 472.826 409.953C472.936 410.027 473.046 410.1 473.138 410.174C473.34 410.32 473.56 410.467 473.762 410.614C474.166 410.926 474.551 411.238 474.919 411.587C475.671 412.266 476.351 413.001 476.975 413.79C477.599 414.58 478.15 415.442 478.645 416.342C479.123 417.242 479.527 418.196 479.857 419.188C479.894 419.279 479.912 419.334 479.931 419.408C479.949 419.481 479.986 419.555 480.004 419.647C480.059 419.793 480.096 419.959 480.132 420.106C480.224 420.418 480.298 420.73 480.371 421.06C480.518 421.703 480.646 422.382 480.738 423.061C480.94 424.438 481.032 425.888 481.032 427.412V511.99C481.032 513.642 480.922 515.221 480.683 516.689C480.445 518.158 480.096 519.553 479.618 520.838C479.582 520.949 479.527 521.077 479.49 521.187C479.453 521.297 479.398 521.408 479.343 521.536C479.251 521.756 479.159 521.995 479.049 522.215C478.847 522.656 478.627 523.097 478.388 523.519C477.911 524.363 477.36 525.171 476.736 525.924C476.424 526.309 476.112 526.658 475.782 526.988C475.451 527.319 475.102 527.668 474.753 527.98C474.037 528.604 473.266 529.192 472.44 529.706C472.348 529.761 472.275 529.816 472.202 529.852C472.11 529.908 472.036 529.944 471.945 529.999C471.779 530.091 471.614 530.201 471.449 530.293C471.118 530.477 470.77 530.66 470.402 530.844C469.686 531.193 468.952 531.523 468.199 531.798C466.676 532.386 465.023 532.845 463.261 533.175C463.206 533.175 463.169 533.175 463.114 533.194H462.967C462.875 533.23 462.784 533.249 462.674 533.267C462.472 533.304 462.288 533.341 462.086 533.359C461.682 533.414 461.278 533.487 460.874 533.542C460.048 533.653 459.185 533.726 458.304 533.8C458.249 533.8 458.212 533.8 458.157 533.8C458.102 533.8 458.066 533.8 458.011 533.8C457.919 533.8 457.827 533.799 457.717 533.818C457.515 533.818 457.331 533.836 457.129 533.855C456.725 533.873 456.322 533.891 455.899 533.91C455.055 533.928 454.192 533.946 453.274 533.946C452.356 533.946 451.475 533.946 450.649 533.91C449.804 533.891 449.015 533.836 448.244 533.781C448.189 533.781 448.134 533.781 448.079 533.781H447.913C447.803 533.763 447.693 533.744 447.583 533.744C447.363 533.726 447.142 533.708 446.94 533.689C446.518 533.653 446.096 533.598 445.674 533.542C444.847 533.432 444.04 533.304 443.287 533.157C443.232 533.157 443.177 533.139 443.122 533.12C443.067 533.12 443.012 533.102 442.957 533.084C442.846 533.065 442.736 533.028 442.626 533.01C442.406 532.955 442.186 532.918 441.984 532.863C441.561 532.771 441.139 532.661 440.717 532.533C439.891 532.294 439.083 532.037 438.312 531.743C436.77 531.156 435.338 530.458 434.034 529.632C433.979 529.595 433.924 529.559 433.869 529.522C433.814 529.485 433.759 529.449 433.704 529.412C433.594 529.338 433.484 529.265 433.392 529.192C433.19 529.045 432.97 528.898 432.768 528.751C432.364 528.439 431.978 528.127 431.593 527.778C430.84 527.099 430.142 526.364 429.518 525.575C428.894 524.785 428.325 523.923 427.848 523.023C427.37 522.124 426.948 521.169 426.618 520.178C426.599 520.086 426.562 520.031 426.544 519.957L426.471 519.719C426.416 519.572 426.379 519.406 426.324 519.26C426.232 518.947 426.159 518.635 426.085 518.305C425.938 517.662 425.81 516.983 425.7 516.304C425.498 514.927 425.406 513.477 425.406 511.953V427.375C425.406 425.723 425.516 424.144 425.755 422.676C425.993 421.207 426.342 419.812 426.819 418.527C426.856 418.417 426.911 418.288 426.948 418.178C427.003 418.068 427.04 417.939 427.095 417.829C427.187 417.609 427.297 417.37 427.389 417.15C427.591 416.709 427.811 416.269 428.068 415.846C428.545 415.002 429.096 414.194 429.72 413.441C430.032 413.056 430.344 412.707 430.675 412.377C431.005 412.028 431.354 411.697 431.721 411.385C432.437 410.761 433.208 410.174 434.053 409.66C434.144 409.604 434.218 409.549 434.291 409.513C434.365 409.476 434.457 409.421 434.548 409.366C434.714 409.274 434.879 409.164 435.062 409.072C435.411 408.888 435.76 408.705 436.109 408.521C436.825 408.173 437.559 407.842 438.33 407.567C439.872 406.979 441.525 406.52 443.287 406.19C443.342 406.19 443.379 406.171 443.434 406.171C443.489 406.171 443.526 406.171 443.581 406.153C443.673 406.153 443.783 406.116 443.874 406.098C444.076 406.061 444.26 406.025 444.462 406.006C444.866 405.951 445.27 405.878 445.674 405.841C446.5 405.731 447.363 405.657 448.244 405.584C448.299 405.584 448.336 405.584 448.391 405.584C448.446 405.584 448.482 405.584 448.538 405.584C448.629 405.584 448.739 405.584 448.831 405.566C449.033 405.566 449.217 405.547 449.419 405.529C449.823 405.511 450.227 405.492 450.649 405.474C451.493 405.437 455.073 405.437 455.918 405.474C456.762 405.511 457.552 405.547 458.323 405.602C458.378 405.602 458.433 405.602 458.488 405.602C458.543 405.602 458.598 405.602 458.653 405.602C458.763 405.602 458.873 405.602 458.984 405.621C459.204 405.639 459.424 405.657 459.626 405.676C460.048 405.712 460.471 405.768 460.893 405.823C461.719 405.933 462.508 406.061 463.279 406.208C463.334 406.208 463.39 406.226 463.445 406.245C463.5 406.245 463.555 406.263 463.61 406.282C463.72 406.3 463.83 406.318 463.94 406.355C464.161 406.41 464.381 406.447 464.583 406.502C465.005 406.594 465.427 406.704 465.85 406.832C466.602 407.053 467.337 407.273 468.034 407.548ZM437.633 278.69H437.651C439.324 278.69 440.68 280.046 440.68 281.719V289.393C440.68 291.066 439.324 292.422 437.651 292.422H437.633C435.96 292.422 434.603 291.066 434.603 289.393V281.719C434.603 280.046 435.96 278.69 437.633 278.69ZM453.219 278.69H453.237C454.91 278.69 456.266 280.046 456.266 281.719V289.393C456.266 291.066 454.91 292.422 453.237 292.422H453.219C451.546 292.422 450.19 291.066 450.19 289.393V281.719C450.19 280.046 451.546 278.69 453.219 278.69ZM468.805 278.69H468.824C470.497 278.69 471.853 280.046 471.853 281.719V289.393C471.853 291.066 470.497 292.422 468.824 292.422H468.805C467.132 292.422 465.776 291.066 465.776 289.393V281.719C465.776 280.046 467.132 278.69 468.805 278.69ZM479.38 5.07558C479.38 7.32646 467.486 9.15116 452.815 9.15116C438.144 9.15116 426.25 7.32646 426.25 5.07558C426.25 2.8247 438.144 1 452.815 1C467.486 1 479.38 2.8247 479.38 5.07558Z" stroke="white" stroke-width="2" stroke-miterlimit="10"/>
<path d="M329.547 740.293C329.156 740.683 329.156 741.317 329.547 741.707L335.911 748.071C336.301 748.462 336.934 748.462 337.325 748.071C337.715 747.681 337.715 747.047 337.325 746.657L331.668 741L337.325 735.343C337.715 734.953 337.715 734.319 337.325 733.929C336.934 733.538 336.301 733.538 335.911 733.929L329.547 740.293ZM577.166 741.707C577.557 741.317 577.557 740.683 577.166 740.293L570.803 733.929C570.412 733.538 569.779 733.538 569.388 733.929C568.998 734.319 568.998 734.953 569.388 735.343L575.045 741L569.388 746.657C568.998 747.047 568.998 747.681 569.388 748.071C569.779 748.462 570.412 748.462 570.803 748.071L577.166 741.707ZM330.254 742H576.459V740H330.254V742Z" fill="#737373"/>
<path d="M397.208 792.58L398.528 770.56H421.508V775.3H402.608L402.068 785.92C403.508 784.66 406.388 782.68 411.008 782.68C419.888 782.68 424.388 789.88 424.388 796.84C424.388 804.16 419.588 811.36 410.108 811.36C401.108 811.36 397.568 805.48 396.428 802.24C396.128 801.34 395.888 800.32 395.708 798.4L401.048 798.04C401.588 802.06 403.868 806.74 409.928 806.74C412.568 806.74 418.808 805.36 418.808 796.66C418.808 791.5 415.988 787.36 410.048 787.36C406.568 787.36 403.688 789.1 402.068 792.58H397.208ZM468.637 800.32L473.797 800.8C472.237 809.02 466.957 811.9 460.477 811.9C451.597 811.9 446.497 805.72 446.497 797.08C446.497 788.62 451.117 781.84 460.237 781.84C468.757 781.84 472.537 787.24 473.257 791.32L467.977 791.8C467.257 787.66 464.497 785.32 460.297 785.32C455.977 785.32 451.777 788.2 451.777 796.78C451.777 803.5 454.777 808.18 460.597 808.18C465.997 808.18 468.097 804.76 468.637 800.32ZM503.766 782.74H509.886V811H505.686V787.78L497.166 811H492.246L484.086 787.3V811H479.406V782.74H486.486L495.126 806.2L503.766 782.74Z" fill="#737373"/>
<path d="M903.139 599.267H903.084M879.146 599.267H756.459M769.383 587.371H1036.84M768.631 553.427C768.704 561.119 768.778 565.856 768.833 566.902C769.439 577.587 769.439 587.977 769.439 605.068C769.439 622.16 783.776 637.415 812.176 638.645C840.062 639.838 900.992 639.857 903.084 639.857H903.139C905.269 639.857 966.162 639.838 994.048 638.645C1022.43 637.415 1036.79 622.16 1036.79 605.068C1036.79 587.977 1036.79 577.587 1037.39 566.902C1037.45 565.856 1037.52 561.119 1037.59 553.427M768.502 542.596C768.007 484.457 767.254 335.978 766.795 241.214C766.648 212.759 766.538 189.132 766.483 174.262C766.428 163.394 766.409 157.189 766.409 157.189C766.409 157.189 769.457 116.967 772.816 67.5659C773.753 53.7608 782.656 47.4089 791.835 37.312C816.013 10.6746 866.369 1.01836 903.084 1H903.139C987.806 1 1030.07 18.2014 1033.43 67.5843C1036.14 107.531 1038.66 141.475 1039.52 153.004C1039.72 155.739 1039.83 157.208 1039.83 157.208M766.703 153.004C766.391 157.208 760.388 156.529 760.388 156.529C760.388 156.529 756.827 164.918 756.827 193.41C756.827 221.901 756.478 561.468 756.478 596.073C756.478 630.678 783.703 651 826.844 651C869.985 651 904.168 651 904.168 651M1049.75 599.267H912.557M903.121 542.192H770.632C767.419 542.192 764.794 544.781 764.794 547.994C764.794 551.188 767.401 553.795 770.632 553.795H903.121M903.084 542.192H1035.57C1038.79 542.192 1041.41 544.781 1041.41 547.994C1041.41 551.188 1038.8 553.795 1035.57 553.795H903.084M903.121 145.679H766.373M766.391 157.208H902.993M903.084 145.679H1039.83M903.231 157.208H1039.83M1039.83 157.208C1039.83 157.208 1038.47 454.221 1037.72 542.596M1039.5 153.004C1039.81 157.208 1045.82 156.529 1045.82 156.529C1045.82 156.529 1049.38 164.918 1049.38 193.41C1049.38 221.901 1049.73 561.468 1049.73 596.073C1049.73 630.678 1022.5 651 979.362 651C936.221 651 902.038 651 902.038 651M791.817 37.3304C791.817 33.8791 788.145 36.1004 786.934 33.8791C782.711 27.7292 796.902 19.0275 811.552 12.4554C826.201 5.88322 867.415 0.412546 886.636 1.62417M788.751 34.9989L804.392 26.4258M916.357 587.371C911.07 614.651 887.058 632.752 839.235 632.752C791.413 632.752 782.454 628.475 782.877 616.671C783.299 604.866 794.24 604.701 805.879 605.27C838.648 606.904 881.367 610.043 890.124 587.353M932.916 587.371V599.267M873.289 587.371V599.267M867.415 63.9494H938.772C957.296 63.9494 972.312 78.9658 972.312 97.4894C972.312 116.013 957.296 131.029 938.772 131.029H867.415C848.891 131.029 833.875 116.013 833.875 97.4894C833.875 78.9658 848.891 63.9494 867.415 63.9494ZM861.283 494.572H944.922V519.3H861.283V494.572Z" stroke="white" stroke-width="2" stroke-miterlimit="10"/>
<path d="M755.752 740.293C755.362 740.683 755.362 741.317 755.752 741.707L762.116 748.071C762.507 748.462 763.14 748.462 763.531 748.071C763.921 747.681 763.921 747.047 763.531 746.657L757.874 741L763.531 735.343C763.921 734.953 763.921 734.319 763.531 733.929C763.14 733.538 762.507 733.538 762.116 733.929L755.752 740.293ZM1050.45 741.707C1050.84 741.317 1050.84 740.683 1050.45 740.293L1044.09 733.929C1043.7 733.538 1043.07 733.538 1042.68 733.929C1042.28 734.319 1042.28 734.953 1042.68 735.343L1048.33 741L1042.68 746.657C1042.28 747.047 1042.28 747.681 1042.68 748.071C1043.07 748.462 1043.7 748.462 1044.09 748.071L1050.45 741.707ZM756.459 742H1049.75V740H756.459V742Z" fill="#737373"/>
<path d="M873.174 780.64L867.954 781.36C867.414 777.58 865.014 774.76 860.934 774.76C853.554 774.76 851.514 782.56 851.514 789.22C853.014 787 856.494 784.3 861.534 784.3C867.054 784.3 874.254 788.2 874.254 797.32C874.254 803.08 870.714 811.36 860.814 811.36C856.914 811.36 852.414 809.74 849.594 805.36C847.134 801.58 846.354 797.62 846.354 791.26C846.354 780.16 850.134 770.2 860.874 770.2C866.454 770.2 871.434 772.78 873.174 780.64ZM852.354 797.8C852.354 802.78 855.954 806.56 860.934 806.56C865.914 806.56 868.974 802.42 868.974 797.86C868.974 794.86 867.354 789.16 860.754 789.16C854.454 789.16 852.354 794.44 852.354 797.8ZM918.384 800.32L923.544 800.8C921.984 809.02 916.704 811.9 910.224 811.9C901.344 811.9 896.244 805.72 896.244 797.08C896.244 788.62 900.864 781.84 909.984 781.84C918.504 781.84 922.284 787.24 923.004 791.32L917.724 791.8C917.004 787.66 914.244 785.32 910.044 785.32C905.724 785.32 901.524 788.2 901.524 796.78C901.524 803.5 904.524 808.18 910.344 808.18C915.744 808.18 917.844 804.76 918.384 800.32ZM953.513 782.74H959.633V811H955.433V787.78L946.913 811H941.993L933.833 787.3V811H929.153V782.74H936.233L944.873 806.2L953.513 782.74Z" fill="#737373"/>
</svg>
